# xmcd
#
# Track frame offsets: 
#        150
#        20442
#        39495
#        57647
#        75332
#        90127
#        104087
#        123075
#        140077
#        157660
#        174832
#        192352
#        209802
#        227752
#        246890
#        263455
#
# Disc length: 3738 seconds
#
# Revision: 0
# Processed by: cddbd v1.5.2PL0 Copyright (c) Steve Scherf et al.
# Submitted via: ExactAudioCopy v1.0b3
#
DISCID=cb0e9810
DTITLE=美川憲一 - ベスト16 別れの旅路・北国夜曲 CRCN-40561
DYEAR=1900
DGENRE=JPop
TTITLE0=別れの旅路
TTITLE1=おんなの朝
TTITLE2=北国夜曲
TTITLE3=柳ヶ瀬ブルース
TTITLE4=さそり座の女
TTITLE5=軽蔑 
TTITLE6=風の夜汽車
TTITLE7=幸せになりたい
TTITLE8=慕情 
TTITLE9=釧路の夜
TTITLE10=湯の街艶歌 
TTITLE11=小雨のブルース
TTITLE12=うたかたの夢 
TTITLE13=新潟ブルース 
TTITLE14=信濃川慕情
TTITLE15=生命のブルース 
EXTD=
EXTT0=
EXTT1=
EXTT2=
EXTT3=
EXTT4=
EXTT5=
EXTT6=
EXTT7=
EXTT8=
EXTT9=
EXTT10=
EXTT11=
EXTT12=
EXTT13=
EXTT14=
EXTT15=
PLAYORDER=
